{
    "asset" : {
        "generator" : "Khronos glTF Blender I/O v1.7.33",
        "version" : "2.0"
    },
    "scene" : 0,
    "scenes" : [
        {
            "name" : "Scene",
            "nodes" : [
                0,
                1,
                2,
                3,
                4
            ]
        }
    ],
    "nodes" : [
        {
            "mesh" : 0,
            "name" : "Tunnel-col",
            "rotation" : [
                0,
                0,
                -0.7071067690849304,
                0.7071068286895752
            ],
            "scale" : [
                2.0348165035247803,
                12.246626853942871,
                1.7610492706298828
            ],
            "translation" : [
                0.728652834892273,
                1.4852523803710938,
                0.014598025009036064
            ]
        },
        {
            "mesh" : 1,
            "name" : "Cube-col",
            "scale" : [
                1.631518006324768,
                1.631518006324768,
                1.631518006324768
            ],
            "translation" : [
                14.56715202331543,
                1.4852523803710938,
                0.014598025009036064
            ]
        },
        {
            "mesh" : 2,
            "name" : "Shaft-col",
            "scale" : [
                0.8626078963279724,
                -15.389388084411621,
                0.8626078963279724
            ],
            "translation" : [
                14.584395408630371,
                -15.450212478637695,
                0.014598025009036064
            ]
        },
        {
            "mesh" : 3,
            "name" : "OutsideGround-col",
            "scale" : [
                14.623528480529785,
                0.8089766502380371,
                8.834650993347168
            ],
            "translation" : [
                -25.936664581298828,
                -0.5290336608886719,
                0.014597753062844276
            ]
        },
        {
            "mesh" : 4,
            "name" : "RockFace-col",
            "scale" : [
                1.631518006324768,
                9.27260684967041,
                9.27260684967041
            ],
            "translation" : [
                -9.712594985961914,
                1.2493574619293213,
                -0.17397068440914154
            ]
        }
    ],
    "meshes" : [
        {
            "name" : "Cylinder",
            "primitives" : [
                {
                    "attributes" : {
                        "POSITION" : 0,
                        "NORMAL" : 1,
                        "TEXCOORD_0" : 2
                    },
                    "indices" : 3
                }
            ]
        },
        {
            "name" : "Cube.001",
            "primitives" : [
                {
                    "attributes" : {
                        "POSITION" : 4,
                        "NORMAL" : 5,
                        "TEXCOORD_0" : 6
                    },
                    "indices" : 7
                }
            ]
        },
        {
            "name" : "Cylinder.001",
            "primitives" : [
                {
                    "attributes" : {
                        "POSITION" : 8,
                        "NORMAL" : 9,
                        "TEXCOORD_0" : 10
                    },
                    "indices" : 11
                }
            ]
        },
        {
            "name" : "Cube.002",
            "primitives" : [
                {
                    "attributes" : {
                        "POSITION" : 12,
                        "NORMAL" : 13,
                        "TEXCOORD_0" : 14
                    },
                    "indices" : 15
                }
            ]
        },
        {
            "name" : "Cube.003",
            "primitives" : [
                {
                    "attributes" : {
                        "POSITION" : 16,
                        "NORMAL" : 17,
                        "TEXCOORD_0" : 18
                    },
                    "indices" : 19
                }
            ]
        }
    ],
    "accessors" : [
        {
            "bufferView" : 0,
            "componentType" : 5126,
            "count" : 112,
            "max" : [
                0.6724352240562439,
                0.9999998807907104,
                0.8010472059249878
            ],
            "min" : [
                -0.7800198197364807,
                -0.9999998807907104,
                -0.8010472059249878
            ],
            "type" : "VEC3"
        },
        {
            "bufferView" : 1,
            "componentType" : 5126,
            "count" : 112,
            "type" : "VEC3"
        },
        {
            "bufferView" : 2,
            "componentType" : 5126,
            "count" : 112,
            "type" : "VEC2"
        },
        {
            "bufferView" : 3,
            "componentType" : 5123,
            "count" : 192,
            "type" : "SCALAR"
        },
        {
            "bufferView" : 4,
            "componentType" : 5126,
            "count" : 166,
            "max" : [
                1,
                1,
                1
            ],
            "min" : [
                -1,
                -1,
                -1
            ],
            "type" : "VEC3"
        },
        {
            "bufferView" : 5,
            "componentType" : 5126,
            "count" : 166,
            "type" : "VEC3"
        },
        {
            "bufferView" : 6,
            "componentType" : 5126,
            "count" : 166,
            "type" : "VEC2"
        },
        {
            "bufferView" : 7,
            "componentType" : 5123,
            "count" : 330,
            "type" : "SCALAR"
        },
        {
            "bufferView" : 8,
            "componentType" : 5126,
            "count" : 192,
            "max" : [
                1,
                0.019824564456939697,
                1
            ],
            "min" : [
                -1,
                -1,
                -1
            ],
            "type" : "VEC3"
        },
        {
            "bufferView" : 9,
            "componentType" : 5126,
            "count" : 192,
            "type" : "VEC3"
        },
        {
            "bufferView" : 10,
            "componentType" : 5126,
            "count" : 192,
            "type" : "VEC2"
        },
        {
            "bufferView" : 11,
            "componentType" : 5123,
            "count" : 372,
            "type" : "SCALAR"
        },
        {
            "bufferView" : 12,
            "componentType" : 5126,
            "count" : 24,
            "max" : [
                1,
                1,
                1
            ],
            "min" : [
                -1,
                -1,
                -1
            ],
            "type" : "VEC3"
        },
        {
            "bufferView" : 13,
            "componentType" : 5126,
            "count" : 24,
            "type" : "VEC3"
        },
        {
            "bufferView" : 14,
            "componentType" : 5126,
            "count" : 24,
            "type" : "VEC2"
        },
        {
            "bufferView" : 15,
            "componentType" : 5123,
            "count" : 36,
            "type" : "SCALAR"
        },
        {
            "bufferView" : 16,
            "componentType" : 5126,
            "count" : 96,
            "max" : [
                0.9999995231628418,
                1,
                1
            ],
            "min" : [
                -1.0000004768371582,
                -1,
                -1
            ],
            "type" : "VEC3"
        },
        {
            "bufferView" : 17,
            "componentType" : 5126,
            "count" : 96,
            "type" : "VEC3"
        },
        {
            "bufferView" : 18,
            "componentType" : 5126,
            "count" : 96,
            "type" : "VEC2"
        },
        {
            "bufferView" : 19,
            "componentType" : 5123,
            "count" : 240,
            "type" : "SCALAR"
        }
    ],
    "bufferViews" : [
        {
            "buffer" : 0,
            "byteLength" : 1344,
            "byteOffset" : 0
        },
        {
            "buffer" : 0,
            "byteLength" : 1344,
            "byteOffset" : 1344
        },
        {
            "buffer" : 0,
            "byteLength" : 896,
            "byteOffset" : 2688
        },
        {
            "buffer" : 0,
            "byteLength" : 384,
            "byteOffset" : 3584
        },
        {
            "buffer" : 0,
            "byteLength" : 1992,
            "byteOffset" : 3968
        },
        {
            "buffer" : 0,
            "byteLength" : 1992,
            "byteOffset" : 5960
        },
        {
            "buffer" : 0,
            "byteLength" : 1328,
            "byteOffset" : 7952
        },
        {
            "buffer" : 0,
            "byteLength" : 660,
            "byteOffset" : 9280
        },
        {
            "buffer" : 0,
            "byteLength" : 2304,
            "byteOffset" : 9940
        },
        {
            "buffer" : 0,
            "byteLength" : 2304,
            "byteOffset" : 12244
        },
        {
            "buffer" : 0,
            "byteLength" : 1536,
            "byteOffset" : 14548
        },
        {
            "buffer" : 0,
            "byteLength" : 744,
            "byteOffset" : 16084
        },
        {
            "buffer" : 0,
            "byteLength" : 288,
            "byteOffset" : 16828
        },
        {
            "buffer" : 0,
            "byteLength" : 288,
            "byteOffset" : 17116
        },
        {
            "buffer" : 0,
            "byteLength" : 192,
            "byteOffset" : 17404
        },
        {
            "buffer" : 0,
            "byteLength" : 72,
            "byteOffset" : 17596
        },
        {
            "buffer" : 0,
            "byteLength" : 1152,
            "byteOffset" : 17668
        },
        {
            "buffer" : 0,
            "byteLength" : 1152,
            "byteOffset" : 18820
        },
        {
            "buffer" : 0,
            "byteLength" : 768,
            "byteOffset" : 19972
        },
        {
            "buffer" : 0,
            "byteLength" : 480,
            "byteOffset" : 20740
        }
    ],
    "buffers" : [
        {
            "byteLength" : 21220,
            "uri" : "data:application/octet-stream;base64,"
        }
    ]
}
