{
    "asset" : {
        "generator" : "Khronos glTF Blender I/O v1.8.19",
        "version" : "2.0"
    },
    "scene" : 0,
    "scenes" : [
        {
            "name" : "Scene",
            "nodes" : [
                0,
                1,
                2,
                3,
                4,
                5,
                6,
                7,
                8,
                9,
                10
            ]
        }
    ],
    "nodes" : [
        {
            "mesh" : 0,
            "name" : "Tunnel-col",
            "rotation" : [
                0,
                0,
                -0.7071067690849304,
                0.7071068286895752
            ],
            "scale" : [
                2.0348165035247803,
                12.246626853942871,
                1.7610492706298828
            ],
            "translation" : [
                0.728652834892273,
                1.4852523803710938,
                0.014598025009036064
            ]
        },
        {
            "mesh" : 1,
            "name" : "Cube-col",
            "scale" : [
                1.631518006324768,
                1.631518006324768,
                1.631518006324768
            ],
            "translation" : [
                14.56715202331543,
                1.4852523803710938,
                0.014598025009036064
            ]
        },
        {
            "mesh" : 2,
            "name" : "Shaft-col",
            "scale" : [
                0.8626078963279724,
                -15.389388084411621,
                0.8626078963279724
            ],
            "translation" : [
                14.584395408630371,
                -15.450212478637695,
                0.014598025009036064
            ]
        },
        {
            "mesh" : 3,
            "name" : "OutsideGround-col",
            "scale" : [
                14.623528480529785,
                0.8089766502380371,
                8.834650993347168
            ],
            "translation" : [
                -25.936664581298828,
                -0.5290336608886719,
                0.014597753062844276
            ]
        },
        {
            "mesh" : 4,
            "name" : "RockFace-col",
            "scale" : [
                1.631518006324768,
                9.27260684967041,
                9.27260684967041
            ],
            "translation" : [
                -9.712594985961914,
                1.2493574619293213,
                -0.17397068440914154
            ]
        },
        {
            "mesh" : 5,
            "name" : "Cube",
            "rotation" : [
                0.05726359784603119,
                -0.07266923040151596,
                0.07329408079385757,
                0.9930096864700317
            ],
            "scale" : [
                7.692952632904053,
                7.692952632904053,
                1.1533687114715576
            ],
            "translation" : [
                -17.88091468811035,
                3.5913920402526855,
                7.485127925872803
            ]
        },
        {
            "mesh" : 6,
            "name" : "Cube.001",
            "rotation" : [
                0.08238931000232697,
                0.1919333040714264,
                0.06040618568658829,
                0.9760761857032776
            ],
            "scale" : [
                6.669986724853516,
                6.669986724853516,
                1
            ],
            "translation" : [
                -30.384933471679688,
                2.384958028793335,
                7.901406288146973
            ]
        },
        {
            "mesh" : 7,
            "name" : "Cube.002",
            "rotation" : [
                0.20147615671157837,
                -0.46223029494285583,
                0.09161559492349625,
                0.8586951494216919
            ],
            "scale" : [
                6.669986724853516,
                6.669986724853516,
                1
            ],
            "translation" : [
                -38.02265167236328,
                0.5583025217056274,
                6.283295631408691
            ]
        },
        {
            "mesh" : 8,
            "name" : "Cube.003",
            "rotation" : [
                0.05726359784603119,
                -0.07266923040151596,
                0.07329408079385757,
                0.9930096864700317
            ],
            "scale" : [
                7.479576587677002,
                7.479576587677002,
                1.1213781833648682
            ],
            "translation" : [
                -16.30841636657715,
                2.4547958374023438,
                -8.6594877243042
            ]
        },
        {
            "mesh" : 9,
            "name" : "Cube.004",
            "rotation" : [
                0.07830468565225601,
                0.0531298890709877,
                0.06313768029212952,
                0.9935086369514465
            ],
            "scale" : [
                6.669986724853516,
                6.669986724853516,
                1
            ],
            "translation" : [
                -29.197219848632812,
                4.471020221710205,
                -8.391751289367676
            ]
        },
        {
            "mesh" : 10,
            "name" : "Cube.005",
            "rotation" : [
                0.10428542643785477,
                0.4525100290775299,
                0.06428752094507217,
                0.883304238319397
            ],
            "scale" : [
                6.669986724853516,
                6.669986724853516,
                1
            ],
            "translation" : [
                -38.284446716308594,
                2.768190860748291,
                -4.449107646942139
            ]
        }
    ],
    "meshes" : [
        {
            "name" : "Cylinder",
            "primitives" : [
                {
                    "attributes" : {
                        "POSITION" : 0,
                        "NORMAL" : 1,
                        "TEXCOORD_0" : 2
                    },
                    "indices" : 3
                }
            ]
        },
        {
            "name" : "Cube.001",
            "primitives" : [
                {
                    "attributes" : {
                        "POSITION" : 4,
                        "NORMAL" : 5,
                        "TEXCOORD_0" : 6
                    },
                    "indices" : 7
                }
            ]
        },
        {
            "name" : "Cylinder.001",
            "primitives" : [
                {
                    "attributes" : {
                        "POSITION" : 8,
                        "NORMAL" : 9,
                        "TEXCOORD_0" : 10
                    },
                    "indices" : 11
                }
            ]
        },
        {
            "name" : "Cube.002",
            "primitives" : [
                {
                    "attributes" : {
                        "POSITION" : 12,
                        "NORMAL" : 13,
                        "TEXCOORD_0" : 14
                    },
                    "indices" : 15
                }
            ]
        },
        {
            "name" : "Cube.003",
            "primitives" : [
                {
                    "attributes" : {
                        "POSITION" : 16,
                        "NORMAL" : 17,
                        "TEXCOORD_0" : 18
                    },
                    "indices" : 19
                }
            ]
        },
        {
            "name" : "Cube",
            "primitives" : [
                {
                    "attributes" : {
                        "POSITION" : 20,
                        "NORMAL" : 21,
                        "TEXCOORD_0" : 22
                    },
                    "indices" : 15
                }
            ]
        },
        {
            "name" : "Cube.004",
            "primitives" : [
                {
                    "attributes" : {
                        "POSITION" : 23,
                        "NORMAL" : 24,
                        "TEXCOORD_0" : 25
                    },
                    "indices" : 15
                }
            ]
        },
        {
            "name" : "Cube.005",
            "primitives" : [
                {
                    "attributes" : {
                        "POSITION" : 26,
                        "NORMAL" : 27,
                        "TEXCOORD_0" : 28
                    },
                    "indices" : 15
                }
            ]
        },
        {
            "name" : "Cube.006",
            "primitives" : [
                {
                    "attributes" : {
                        "POSITION" : 29,
                        "NORMAL" : 30,
                        "TEXCOORD_0" : 31
                    },
                    "indices" : 15
                }
            ]
        },
        {
            "name" : "Cube.007",
            "primitives" : [
                {
                    "attributes" : {
                        "POSITION" : 32,
                        "NORMAL" : 33,
                        "TEXCOORD_0" : 34
                    },
                    "indices" : 15
                }
            ]
        },
        {
            "name" : "Cube.008",
            "primitives" : [
                {
                    "attributes" : {
                        "POSITION" : 35,
                        "NORMAL" : 36,
                        "TEXCOORD_0" : 37
                    },
                    "indices" : 15
                }
            ]
        }
    ],
    "accessors" : [
        {
            "bufferView" : 0,
            "componentType" : 5126,
            "count" : 464,
            "max" : [
                0.772435188293457,
                0.9999998807907104,
                0.9010471701622009
            ],
            "min" : [
                -0.8800197839736938,
                -0.9999998807907104,
                -0.9010471701622009
            ],
            "type" : "VEC3"
        },
        {
            "bufferView" : 1,
            "componentType" : 5126,
            "count" : 464,
            "type" : "VEC3"
        },
        {
            "bufferView" : 2,
            "componentType" : 5126,
            "count" : 464,
            "type" : "VEC2"
        },
        {
            "bufferView" : 3,
            "componentType" : 5123,
            "count" : 768,
            "type" : "SCALAR"
        },
        {
            "bufferView" : 4,
            "componentType" : 5126,
            "count" : 654,
            "max" : [
                1.0057724714279175,
                1.0057734251022339,
                1.0057734251022339
            ],
            "min" : [
                -1.0088632106781006,
                -1.0099999904632568,
                -1.0057734251022339
            ],
            "type" : "VEC3"
        },
        {
            "bufferView" : 5,
            "componentType" : 5126,
            "count" : 654,
            "type" : "VEC3"
        },
        {
            "bufferView" : 6,
            "componentType" : 5126,
            "count" : 654,
            "type" : "VEC2"
        },
        {
            "bufferView" : 7,
            "componentType" : 5123,
            "count" : 1248,
            "type" : "SCALAR"
        },
        {
            "bufferView" : 8,
            "componentType" : 5126,
            "count" : 386,
            "max" : [
                1.0099999904632568,
                0.026681531220674515,
                1.0099999904632568
            ],
            "min" : [
                -1.0099999904632568,
                -1,
                -1.0099999904632568
            ],
            "type" : "VEC3"
        },
        {
            "bufferView" : 9,
            "componentType" : 5126,
            "count" : 386,
            "type" : "VEC3"
        },
        {
            "bufferView" : 10,
            "componentType" : 5126,
            "count" : 386,
            "type" : "VEC2"
        },
        {
            "bufferView" : 11,
            "componentType" : 5123,
            "count" : 756,
            "type" : "SCALAR"
        },
        {
            "bufferView" : 12,
            "componentType" : 5126,
            "count" : 24,
            "max" : [
                1,
                1,
                1
            ],
            "min" : [
                -1,
                -1,
                -1
            ],
            "type" : "VEC3"
        },
        {
            "bufferView" : 13,
            "componentType" : 5126,
            "count" : 24,
            "type" : "VEC3"
        },
        {
            "bufferView" : 14,
            "componentType" : 5126,
            "count" : 24,
            "type" : "VEC2"
        },
        {
            "bufferView" : 15,
            "componentType" : 5123,
            "count" : 36,
            "type" : "SCALAR"
        },
        {
            "bufferView" : 16,
            "componentType" : 5126,
            "count" : 96,
            "max" : [
                17.271142959594727,
                1,
                1
            ],
            "min" : [
                -1.0000004768371582,
                -2.0071840286254883,
                -1
            ],
            "type" : "VEC3"
        },
        {
            "bufferView" : 17,
            "componentType" : 5126,
            "count" : 96,
            "type" : "VEC3"
        },
        {
            "bufferView" : 18,
            "componentType" : 5126,
            "count" : 96,
            "type" : "VEC2"
        },
        {
            "bufferView" : 19,
            "componentType" : 5123,
            "count" : 240,
            "type" : "SCALAR"
        },
        {
            "bufferView" : 20,
            "componentType" : 5126,
            "count" : 24,
            "max" : [
                1,
                1,
                1
            ],
            "min" : [
                -1,
                -1,
                -1
            ],
            "type" : "VEC3"
        },
        {
            "bufferView" : 21,
            "componentType" : 5126,
            "count" : 24,
            "type" : "VEC3"
        },
        {
            "bufferView" : 22,
            "componentType" : 5126,
            "count" : 24,
            "type" : "VEC2"
        },
        {
            "bufferView" : 23,
            "componentType" : 5126,
            "count" : 24,
            "max" : [
                1,
                1,
                1
            ],
            "min" : [
                -1,
                -1,
                -1
            ],
            "type" : "VEC3"
        },
        {
            "bufferView" : 24,
            "componentType" : 5126,
            "count" : 24,
            "type" : "VEC3"
        },
        {
            "bufferView" : 25,
            "componentType" : 5126,
            "count" : 24,
            "type" : "VEC2"
        },
        {
            "bufferView" : 26,
            "componentType" : 5126,
            "count" : 24,
            "max" : [
                1,
                1,
                1
            ],
            "min" : [
                -1,
                -1,
                -1
            ],
            "type" : "VEC3"
        },
        {
            "bufferView" : 27,
            "componentType" : 5126,
            "count" : 24,
            "type" : "VEC3"
        },
        {
            "bufferView" : 28,
            "componentType" : 5126,
            "count" : 24,
            "type" : "VEC2"
        },
        {
            "bufferView" : 29,
            "componentType" : 5126,
            "count" : 24,
            "max" : [
                1,
                1,
                1
            ],
            "min" : [
                -1,
                -1,
                -1
            ],
            "type" : "VEC3"
        },
        {
            "bufferView" : 30,
            "componentType" : 5126,
            "count" : 24,
            "type" : "VEC3"
        },
        {
            "bufferView" : 31,
            "componentType" : 5126,
            "count" : 24,
            "type" : "VEC2"
        },
        {
            "bufferView" : 32,
            "componentType" : 5126,
            "count" : 24,
            "max" : [
                1,
                1,
                1
            ],
            "min" : [
                -1,
                -1,
                -1
            ],
            "type" : "VEC3"
        },
        {
            "bufferView" : 33,
            "componentType" : 5126,
            "count" : 24,
            "type" : "VEC3"
        },
        {
            "bufferView" : 34,
            "componentType" : 5126,
            "count" : 24,
            "type" : "VEC2"
        },
        {
            "bufferView" : 35,
            "componentType" : 5126,
            "count" : 24,
            "max" : [
                1,
                1,
                1
            ],
            "min" : [
                -1,
                -1,
                -1
            ],
            "type" : "VEC3"
        },
        {
            "bufferView" : 36,
            "componentType" : 5126,
            "count" : 24,
            "type" : "VEC3"
        },
        {
            "bufferView" : 37,
            "componentType" : 5126,
            "count" : 24,
            "type" : "VEC2"
        }
    ],
    "bufferViews" : [
        {
            "buffer" : 0,
            "byteLength" : 5568,
            "byteOffset" : 0
        },
        {
            "buffer" : 0,
            "byteLength" : 5568,
            "byteOffset" : 5568
        },
        {
            "buffer" : 0,
            "byteLength" : 3712,
            "byteOffset" : 11136
        },
        {
            "buffer" : 0,
            "byteLength" : 1536,
            "byteOffset" : 14848
        },
        {
            "buffer" : 0,
            "byteLength" : 7848,
            "byteOffset" : 16384
        },
        {
            "buffer" : 0,
            "byteLength" : 7848,
            "byteOffset" : 24232
        },
        {
            "buffer" : 0,
            "byteLength" : 5232,
            "byteOffset" : 32080
        },
        {
            "buffer" : 0,
            "byteLength" : 2496,
            "byteOffset" : 37312
        },
        {
            "buffer" : 0,
            "byteLength" : 4632,
            "byteOffset" : 39808
        },
        {
            "buffer" : 0,
            "byteLength" : 4632,
            "byteOffset" : 44440
        },
        {
            "buffer" : 0,
            "byteLength" : 3088,
            "byteOffset" : 49072
        },
        {
            "buffer" : 0,
            "byteLength" : 1512,
            "byteOffset" : 52160
        },
        {
            "buffer" : 0,
            "byteLength" : 288,
            "byteOffset" : 53672
        },
        {
            "buffer" : 0,
            "byteLength" : 288,
            "byteOffset" : 53960
        },
        {
            "buffer" : 0,
            "byteLength" : 192,
            "byteOffset" : 54248
        },
        {
            "buffer" : 0,
            "byteLength" : 72,
            "byteOffset" : 54440
        },
        {
            "buffer" : 0,
            "byteLength" : 1152,
            "byteOffset" : 54512
        },
        {
            "buffer" : 0,
            "byteLength" : 1152,
            "byteOffset" : 55664
        },
        {
            "buffer" : 0,
            "byteLength" : 768,
            "byteOffset" : 56816
        },
        {
            "buffer" : 0,
            "byteLength" : 480,
            "byteOffset" : 57584
        },
        {
            "buffer" : 0,
            "byteLength" : 288,
            "byteOffset" : 58064
        },
        {
            "buffer" : 0,
            "byteLength" : 288,
            "byteOffset" : 58352
        },
        {
            "buffer" : 0,
            "byteLength" : 192,
            "byteOffset" : 58640
        },
        {
            "buffer" : 0,
            "byteLength" : 288,
            "byteOffset" : 58832
        },
        {
            "buffer" : 0,
            "byteLength" : 288,
            "byteOffset" : 59120
        },
        {
            "buffer" : 0,
            "byteLength" : 192,
            "byteOffset" : 59408
        },
        {
            "buffer" : 0,
            "byteLength" : 288,
            "byteOffset" : 59600
        },
        {
            "buffer" : 0,
            "byteLength" : 288,
            "byteOffset" : 59888
        },
        {
            "buffer" : 0,
            "byteLength" : 192,
            "byteOffset" : 60176
        },
        {
            "buffer" : 0,
            "byteLength" : 288,
            "byteOffset" : 60368
        },
        {
            "buffer" : 0,
            "byteLength" : 288,
            "byteOffset" : 60656
        },
        {
            "buffer" : 0,
            "byteLength" : 192,
            "byteOffset" : 60944
        },
        {
            "buffer" : 0,
            "byteLength" : 288,
            "byteOffset" : 61136
        },
        {
            "buffer" : 0,
            "byteLength" : 288,
            "byteOffset" : 61424
        },
        {
            "buffer" : 0,
            "byteLength" : 192,
            "byteOffset" : 61712
        },
        {
            "buffer" : 0,
            "byteLength" : 288,
            "byteOffset" : 61904
        },
        {
            "buffer" : 0,
            "byteLength" : 288,
            "byteOffset" : 62192
        },
        {
            "buffer" : 0,
            "byteLength" : 192,
            "byteOffset" : 62480
        }
    ],
    "buffers" : [
        {
            "byteLength" : 62672,
            "uri" : "data:application/octet-stream;base64,"
        }
    ]
}
