{
    "asset" : {
        "generator" : "Khronos glTF Blender I/O v1.8.19",
        "version" : "2.0"
    },
    "scene" : 0,
    "scenes" : [
        {
            "name" : "Scene",
            "nodes" : [
                0
            ]
        }
    ],
    "nodes" : [
        {
            "mesh" : 0,
            "name" : "Cylinder-col",
            "scale" : [
                0.8700000047683716,
                3.999999761581421,
                0.8700000047683716
            ]
        }
    ],
    "meshes" : [
        {
            "name" : "Cylinder",
            "primitives" : [
                {
                    "attributes" : {
                        "POSITION" : 0,
                        "NORMAL" : 1,
                        "TEXCOORD_0" : 2
                    },
                    "indices" : 3
                }
            ]
        }
    ],
    "accessors" : [
        {
            "bufferView" : 0,
            "componentType" : 5126,
            "count" : 4190,
            "max" : [
                105.92524719238281,
                31.067747116088867,
                276.00830078125
            ],
            "min" : [
                -151.87411499023438,
                -41.897422790527344,
                -2.230156421661377
            ],
            "type" : "VEC3"
        },
        {
            "bufferView" : 1,
            "componentType" : 5126,
            "count" : 4190,
            "type" : "VEC3"
        },
        {
            "bufferView" : 2,
            "componentType" : 5126,
            "count" : 4190,
            "type" : "VEC2"
        },
        {
            "bufferView" : 3,
            "componentType" : 5123,
            "count" : 6438,
            "type" : "SCALAR"
        }
    ],
    "bufferViews" : [
        {
            "buffer" : 0,
            "byteLength" : 50280,
            "byteOffset" : 0
        },
        {
            "buffer" : 0,
            "byteLength" : 50280,
            "byteOffset" : 50280
        },
        {
            "buffer" : 0,
            "byteLength" : 33520,
            "byteOffset" : 100560
        },
        {
            "buffer" : 0,
            "byteLength" : 12876,
            "byteOffset" : 134080
        }
    ],
    "buffers" : [
        {
            "byteLength" : 146956,
            "uri" : "data:application/octet-stream;base64,"
        }
    ]
}
